<?xml version="1.0" standalone="no"?>
<!DOCTYPE svg PUBLIC "-//W3C//DTD SVG 20010904//EN"
 "http://www.w3.org/TR/2001/REC-SVG-20010904/DTD/svg10.dtd">
<svg version="1.0" xmlns="http://www.w3.org/2000/svg"
 width="711.000000pt" height="711.000000pt" viewBox="0 0 711.000000 711.000000"
 preserveAspectRatio="xMidYMid meet">
<metadata>
Created by potrace 1.11, written by Peter Selinger 2001-2013
</metadata>
<g transform="translate(0.000000,711.000000) scale(0.100000,-0.100000)"
fill="#000000" stroke="none">
<path d="M3916 6878 c-3 -128 -9 -260 -13 -293 l-8 -60 -77 -5 c-42 -3 -83
-11 -90 -17 -8 -9 -46 -13 -113 -13 -73 0 -106 -4 -121 -15 -10 -8 -35 -15
-55 -15 -19 0 -44 -7 -55 -15 -20 -15 -131 -21 -149 -7 -21 15 -45 75 -45 113
0 26 -5 42 -15 45 -8 4 -15 17 -15 29 0 13 -4 26 -9 30 -6 3 -20 26 -33 51
-12 26 -28 49 -35 51 -7 3 -13 9 -13 14 0 4 -12 21 -26 36 -14 15 -30 38 -35
51 -5 12 -15 22 -24 22 -8 0 -15 4 -15 10 0 15 -72 80 -89 80 -9 0 -22 9 -29
20 -7 11 -18 17 -27 14 -8 -3 -21 1 -30 9 -12 12 -22 13 -48 5 -17 -5 -42 -12
-55 -15 -27 -6 -62 -48 -62 -74 0 -11 -6 -28 -12 -39 -10 -16 -10 -24 0 -40 6
-11 12 -31 12 -45 0 -14 7 -28 15 -31 8 -4 15 -18 15 -34 0 -15 6 -30 14 -33
7 -3 16 -18 19 -34 3 -17 16 -35 31 -42 13 -8 27 -25 31 -38 3 -14 16 -35 28
-47 12 -12 30 -39 39 -59 10 -21 25 -40 33 -43 8 -4 15 -14 15 -24 0 -10 7
-25 15 -34 8 -8 18 -28 21 -44 5 -26 3 -30 -25 -35 -18 -4 -42 -18 -55 -32
-13 -14 -28 -25 -35 -25 -6 0 -11 -4 -11 -8 0 -4 -15 -16 -32 -27 -18 -10 -80
-67 -138 -126 -165 -167 -190 -195 -190 -213 0 -9 -8 -16 -20 -16 -25 0 -295
-265 -309 -303 -6 -15 -16 -27 -24 -27 -7 0 -28 -26 -47 -57 -19 -32 -37 -60
-41 -63 -15 -12 -39 -72 -39 -98 0 -17 -6 -32 -15 -36 -9 -3 -15 -19 -15 -41
0 -25 -4 -35 -15 -35 -9 0 -18 -12 -22 -30 -3 -17 -10 -33 -14 -36 -5 -3 -9
-18 -9 -33 0 -16 -7 -34 -15 -41 -8 -7 -15 -29 -15 -49 0 -20 -6 -43 -12 -49
-7 -7 -16 -50 -19 -95 -4 -45 -12 -141 -19 -214 -10 -103 -10 -151 0 -220 6
-48 15 -126 20 -171 4 -46 13 -89 19 -95 6 -6 11 -28 11 -49 0 -25 5 -41 15
-44 10 -4 15 -20 15 -44 0 -21 7 -43 15 -50 8 -7 15 -25 15 -41 0 -15 7 -34
15 -43 8 -8 15 -29 15 -46 0 -18 6 -33 15 -36 9 -4 15 -19 15 -39 0 -20 6 -35
15 -39 8 -3 15 -17 15 -31 0 -14 5 -25 10 -25 6 0 10 -9 10 -20 0 -11 9 -28
20 -37 11 -10 20 -25 20 -34 0 -9 7 -19 15 -23 8 -3 15 -12 15 -21 0 -8 4 -15
9 -15 5 0 14 -13 20 -30 5 -16 15 -30 20 -30 6 0 11 -7 11 -15 0 -8 7 -15 15
-15 8 0 15 -7 15 -15 0 -8 7 -15 15 -15 8 0 15 -8 15 -19 0 -19 102 -131 120
-131 5 0 17 -11 26 -25 9 -13 25 -27 35 -30 11 -4 31 -17 45 -30 15 -14 36
-27 48 -31 11 -4 27 -15 34 -25 7 -11 19 -16 29 -12 9 4 19 -1 25 -11 5 -9 43
-33 84 -52 40 -20 76 -40 79 -45 4 -5 14 -9 23 -9 10 0 23 -9 30 -20 7 -11 21
-20 32 -20 11 0 20 -4 20 -10 0 -5 14 -10 30 -10 17 0 30 -5 30 -10 0 -6 12
-16 28 -23 15 -6 33 -17 40 -24 7 -7 22 -13 32 -13 10 0 22 -5 25 -10 3 -5 23
-10 43 -10 20 0 46 -7 56 -15 11 -8 38 -15 60 -15 23 -1 52 -7 66 -15 14 -8
52 -14 86 -15 42 0 65 -5 74 -15 7 -9 30 -15 54 -15 22 0 50 -7 60 -15 11 -8
36 -15 57 -15 20 0 42 -7 49 -15 8 -10 30 -15 64 -15 29 0 58 -6 64 -12 14
-14 115 -23 417 -37 142 -6 191 -5 233 5 29 8 70 14 91 14 22 0 44 6 51 15 8
9 30 15 59 15 25 1 57 7 71 15 14 8 39 14 56 15 17 0 37 7 44 15 7 8 27 15 45
15 18 0 38 7 45 15 7 8 29 15 50 15 21 0 43 7 50 15 7 8 27 15 45 15 20 0 35
6 39 15 3 9 18 15 40 15 19 0 38 5 41 10 3 6 15 10 26 10 10 0 24 9 31 20 7
11 23 20 35 20 13 0 23 5 23 11 0 5 14 15 30 20 17 6 30 15 30 20 0 5 9 9 20
9 11 0 20 4 20 9 0 5 13 12 29 16 16 3 32 13 35 21 3 8 12 14 20 14 8 0 21 6
28 12 20 19 50 38 71 44 9 4 17 10 17 15 0 5 10 14 23 19 33 15 61 33 70 48 4
6 15 12 22 12 8 0 15 4 15 9 0 5 9 13 21 16 11 4 40 26 64 48 23 23 51 47 61
53 11 6 23 20 29 32 5 12 15 22 22 22 7 0 13 5 13 10 0 6 22 32 49 58 47 44
101 114 101 130 0 4 9 13 20 20 11 7 20 21 20 32 0 11 5 20 10 20 6 0 10 6 10
13 0 7 9 18 20 25 11 7 20 21 20 31 0 11 5 23 10 26 6 3 10 14 10 25 0 10 7
20 15 24 8 3 15 14 15 24 0 11 7 25 15 32 8 7 15 20 15 29 0 9 7 25 15 35 9
12 15 42 15 72 0 37 4 54 15 58 10 3 15 20 15 48 0 24 7 52 15 62 8 11 15 40
15 65 1 25 7 57 15 71 8 14 14 42 15 62 0 24 6 40 17 47 12 6 16 20 15 44 -2
21 3 39 13 47 22 19 22 531 0 574 -9 16 -13 36 -11 43 3 7 -3 19 -14 25 -12 8
-20 24 -20 40 0 16 -5 28 -11 28 -5 0 -15 14 -20 30 -6 17 -15 30 -20 30 -5 0
-9 7 -9 15 0 8 -4 15 -9 15 -5 0 -14 14 -20 30 -5 17 -15 30 -20 30 -6 0 -11
11 -11 25 0 14 -4 25 -9 25 -9 0 -28 29 -50 78 -6 12 -15 22 -20 22 -6 0 -8 7
-4 15 3 10 -8 29 -31 52 -20 20 -36 42 -36 49 0 8 -10 20 -23 28 -12 9 -40 39
-62 68 -22 29 -46 58 -53 63 -7 6 -16 24 -20 40 -5 17 -18 34 -30 40 -12 5
-22 18 -22 28 0 10 -7 20 -15 23 -8 4 -15 15 -15 25 0 10 -6 19 -14 19 -8 0
-17 11 -20 24 -8 33 -133 156 -158 156 -7 0 -18 10 -23 22 -6 13 -25 27 -43
32 -19 5 -47 22 -62 38 -16 15 -37 28 -48 28 -11 0 -22 7 -26 15 -3 8 -15 15
-26 15 -11 0 -34 16 -51 35 -17 19 -45 40 -63 46 l-33 12 43 42 c24 23 44 47
44 53 0 7 4 12 9 12 5 0 14 14 20 30 5 17 15 30 20 30 6 0 11 8 11 19 0 10 7
24 15 31 8 7 15 25 15 40 0 16 7 30 15 34 8 3 15 16 15 30 0 13 7 26 15 30 9
3 15 18 15 35 0 16 6 31 15 35 9 3 15 18 15 36 0 17 7 38 15 46 8 9 15 24 15
33 0 10 7 24 15 31 8 7 15 28 15 47 0 18 6 44 14 56 13 19 12 27 -2 60 l-17
37 -157 0 c-134 0 -158 -2 -158 -15 0 -8 -4 -15 -10 -15 -5 0 -12 -11 -16 -25
-3 -13 -12 -29 -20 -36 -8 -6 -14 -19 -14 -29 0 -10 -7 -23 -15 -30 -8 -7 -15
-27 -15 -45 0 -20 -6 -35 -15 -39 -8 -3 -15 -14 -15 -25 0 -10 -7 -21 -15 -25
-8 -3 -15 -13 -15 -22 0 -9 -9 -27 -19 -40 -11 -14 -17 -33 -14 -44 3 -12 -1
-22 -11 -26 -9 -3 -16 -16 -16 -29 0 -13 -6 -25 -14 -28 -8 -3 -16 -29 -20
-69 -8 -82 -8 -78 0 -113 7 -28 6 -29 -11 -15 -14 11 -53 16 -164 18 -88 3
-149 8 -153 15 -3 6 -61 12 -140 14 -81 3 -148 10 -171 19 -20 8 -48 14 -61
14 -38 0 -56 30 -56 91 1 32 7 62 15 73 12 16 15 56 15 192 0 94 -3 186 -6
203 l-6 31 -168 0 -168 0 -6 -232z m514 -738 c91 -4 185 -12 210 -18 25 -6 90
-11 145 -12 71 0 106 -5 119 -15 11 -8 40 -15 65 -15 38 -1 51 -6 75 -30 16
-16 49 -39 73 -51 23 -11 43 -25 43 -30 0 -6 20 -19 45 -30 24 -11 47 -24 50
-29 3 -6 13 -10 22 -10 8 0 31 -13 50 -30 18 -16 38 -30 43 -30 19 0 170 -160
170 -180 0 -11 4 -20 10 -20 5 0 16 -15 25 -34 9 -19 25 -42 36 -52 10 -9 19
-21 19 -25 0 -8 30 -46 73 -92 16 -17 40 -48 53 -69 13 -21 31 -38 40 -38 12
0 15 -6 11 -20 -4 -14 1 -25 14 -33 11 -7 19 -23 19 -38 0 -15 7 -32 15 -39 8
-7 15 -20 15 -30 0 -10 7 -23 15 -30 8 -7 15 -19 15 -27 0 -7 7 -16 15 -19 8
-4 15 -17 15 -30 0 -14 7 -27 15 -30 8 -4 15 -16 15 -29 0 -12 7 -28 15 -35
12 -10 15 -48 15 -220 0 -176 -2 -209 -15 -214 -9 -3 -15 -18 -15 -34 0 -16
-7 -35 -15 -42 -10 -8 -15 -30 -15 -65 0 -35 -5 -57 -15 -65 -10 -8 -15 -31
-15 -64 0 -29 -7 -59 -15 -70 -8 -11 -15 -40 -15 -64 0 -25 -6 -50 -15 -58 -8
-9 -15 -28 -15 -44 0 -16 -7 -30 -15 -34 -8 -3 -15 -16 -15 -30 0 -13 -7 -26
-15 -30 -8 -3 -15 -17 -15 -31 0 -14 -4 -25 -10 -25 -15 0 -50 -42 -50 -62 0
-19 -23 -45 -55 -64 -10 -6 -23 -23 -28 -39 -5 -15 -29 -48 -53 -72 -24 -24
-44 -48 -44 -53 0 -6 -9 -10 -21 -10 -11 0 -34 -14 -51 -30 -16 -17 -33 -30
-38 -30 -5 0 -17 -11 -28 -25 -11 -14 -25 -25 -31 -25 -6 0 -19 -8 -29 -17
-10 -10 -35 -27 -56 -38 -21 -11 -40 -26 -43 -32 -3 -7 -16 -13 -29 -13 -14 0
-27 -6 -30 -14 -3 -8 -16 -17 -30 -20 -13 -4 -24 -11 -24 -16 0 -6 -6 -10 -14
-10 -7 0 -19 -7 -26 -15 -7 -8 -21 -15 -32 -15 -10 0 -21 -7 -24 -15 -4 -8
-16 -15 -29 -15 -13 0 -25 -7 -29 -15 -3 -9 -18 -15 -34 -15 -16 0 -35 -7 -42
-15 -7 -8 -26 -15 -42 -15 -16 0 -31 -6 -34 -15 -4 -8 -18 -15 -33 -15 -15 0
-36 -7 -47 -15 -10 -8 -37 -15 -60 -15 -22 0 -49 -7 -60 -15 -10 -8 -33 -15
-51 -15 -17 0 -38 -7 -47 -15 -8 -8 -31 -15 -51 -15 -19 0 -52 -7 -72 -15 -52
-22 -527 -22 -569 0 -16 8 -52 15 -80 15 -34 0 -56 5 -64 15 -7 8 -29 15 -49
15 -20 0 -45 7 -55 15 -13 10 -44 15 -85 15 -42 1 -73 6 -85 15 -11 8 -39 15
-62 15 -24 0 -44 5 -46 12 -3 7 -31 15 -64 19 -32 3 -75 12 -94 19 -19 7 -39
15 -45 16 -5 2 -17 8 -25 13 -8 5 -36 19 -62 31 -27 12 -50 26 -54 31 -3 5
-12 9 -20 9 -8 0 -23 9 -34 20 -11 11 -27 20 -35 20 -8 0 -15 5 -15 10 0 6 -8
10 -19 10 -10 0 -24 7 -31 15 -7 8 -18 15 -25 15 -7 0 -18 7 -25 15 -7 8 -20
15 -30 15 -10 0 -20 7 -24 15 -3 8 -17 15 -31 15 -15 0 -25 6 -25 14 0 8 -25
31 -55 52 -31 20 -60 45 -66 57 -6 11 -29 37 -50 57 -22 20 -39 42 -39 48 0 7
-6 12 -14 12 -7 0 -17 8 -20 18 -9 23 -31 61 -45 75 -6 6 -11 19 -11 29 0 10
-7 21 -15 24 -8 4 -15 14 -15 24 0 10 -7 23 -15 30 -8 7 -15 22 -15 34 0 12
-7 31 -15 42 -8 10 -15 33 -15 51 0 17 -7 38 -15 47 -8 8 -15 25 -15 38 0 13
-7 32 -15 42 -8 11 -15 33 -15 49 0 15 -7 35 -15 43 -10 11 -15 37 -15 87 -1
47 -6 79 -15 91 -22 29 -21 268 0 286 11 9 15 33 15 91 0 45 4 79 10 79 11 0
25 47 22 71 -2 9 4 19 13 22 8 4 15 17 15 31 0 13 7 26 15 30 8 3 15 18 15 33
0 15 7 37 15 47 8 11 15 32 15 47 0 14 7 32 15 39 8 7 15 18 15 25 0 7 6 15
13 18 7 2 22 23 32 46 11 22 26 41 33 41 6 0 12 7 12 15 0 8 7 15 15 15 8 0
15 5 15 11 0 9 81 93 136 140 11 9 46 45 80 80 33 35 69 69 80 75 10 6 23 20
29 32 5 12 18 22 28 22 10 0 31 12 46 28 15 15 44 35 65 44 20 10 39 25 42 33
4 8 17 15 30 15 14 0 27 7 30 15 4 8 14 15 24 15 10 0 23 7 30 15 7 8 23 15
35 15 12 0 28 7 35 15 7 8 25 15 40 15 15 0 33 6 39 14 7 8 23 17 36 20 14 4
25 11 25 16 0 6 15 10 34 10 18 0 39 7 46 15 7 8 26 15 42 15 16 0 31 6 34 15
4 10 21 15 54 15 30 0 52 6 60 15 7 8 25 15 41 15 15 0 34 7 43 15 8 9 33 15
58 15 24 0 49 5 56 12 7 7 58 18 115 24 101 12 230 11 577 -6z"/>
<path d="M4160 5168 c-10 -4 -21 -11 -25 -17 -3 -6 -21 -11 -39 -11 -33 0
-116 -34 -116 -48 0 -4 -14 -13 -31 -21 -39 -17 -81 -57 -105 -100 -10 -19
-31 -48 -46 -65 -16 -17 -28 -38 -28 -47 0 -9 -7 -19 -15 -22 -17 -7 -45 -70
-45 -102 0 -13 -6 -25 -14 -28 -9 -4 -16 -26 -19 -59 -3 -29 -10 -79 -15 -112
-6 -44 -5 -61 5 -71 7 -8 13 -34 13 -59 0 -26 6 -51 15 -60 8 -8 15 -24 15
-36 0 -11 7 -23 15 -26 8 -4 15 -14 15 -23 0 -19 83 -101 103 -101 8 0 17 -7
21 -15 3 -8 17 -15 31 -15 14 0 28 -7 31 -15 4 -8 18 -15 33 -15 14 0 35 -7
45 -15 27 -20 225 -20 281 0 22 8 54 15 71 15 17 0 37 7 44 15 7 8 25 15 41
15 16 0 29 4 29 9 0 6 12 16 28 23 15 7 31 22 36 34 5 11 18 25 29 30 11 5 25
18 31 29 6 11 17 24 24 28 6 4 12 19 12 31 0 13 7 26 15 30 8 3 15 15 15 26 0
12 7 42 15 68 13 39 15 86 11 247 -5 246 -5 248 -37 277 -14 13 -32 38 -40 56
-7 18 -18 32 -22 32 -5 0 -28 14 -52 30 -24 17 -46 30 -50 30 -4 0 -13 7 -21
15 -10 9 -34 15 -63 15 -26 0 -53 6 -59 13 -15 14 -153 26 -182 15z"/>
<path d="M6276 2845 c-16 -8 -54 -15 -87 -15 -44 0 -61 -4 -65 -15 -5 -11 -21
-15 -59 -15 -34 0 -59 -5 -69 -15 -8 -8 -29 -15 -46 -15 -18 0 -33 -6 -36 -15
-4 -10 -19 -15 -43 -15 -21 0 -46 -7 -57 -15 -10 -8 -31 -15 -45 -15 -15 0
-32 -7 -39 -15 -7 -8 -27 -15 -45 -15 -18 0 -38 -7 -45 -15 -8 -10 -30 -15
-61 -15 -29 0 -53 -6 -63 -15 -8 -8 -26 -15 -40 -15 -13 0 -31 -7 -40 -15 -8
-8 -26 -15 -39 -15 -14 0 -30 -7 -37 -15 -7 -8 -23 -15 -36 -15 -12 0 -29 -7
-38 -15 -8 -8 -21 -15 -29 -15 -8 0 -20 -7 -27 -15 -7 -8 -21 -15 -32 -15 -22
0 -107 -60 -108 -76 0 -7 -11 -15 -25 -18 -13 -3 -43 -24 -66 -46 -23 -22 -44
-40 -45 -40 -2 0 -25 -20 -51 -45 -26 -24 -51 -45 -54 -45 -10 0 -179 -165
-179 -174 0 -4 -13 -19 -30 -33 -16 -13 -30 -33 -30 -44 0 -10 -7 -19 -15 -19
-8 0 -15 -6 -15 -14 0 -8 -6 -16 -13 -19 -7 -2 -21 -22 -32 -43 -11 -22 -26
-43 -32 -47 -7 -4 -13 -19 -13 -32 0 -14 -6 -25 -13 -25 -14 0 -47 -60 -47
-84 0 -8 -7 -19 -15 -26 -8 -7 -15 -25 -15 -40 0 -16 -7 -30 -15 -34 -8 -3
-15 -14 -15 -24 0 -11 -7 -25 -15 -32 -8 -7 -15 -28 -15 -47 0 -21 -6 -36 -15
-39 -10 -4 -15 -20 -15 -44 0 -21 -7 -43 -15 -50 -21 -17 -21 -174 0 -214 8
-15 15 -38 15 -51 0 -12 7 -28 15 -35 8 -7 15 -23 15 -35 0 -12 7 -28 15 -35
8 -7 15 -19 15 -26 0 -8 7 -14 15 -14 10 0 15 -10 15 -28 0 -16 9 -37 19 -46
11 -10 21 -28 23 -40 2 -11 13 -25 25 -31 12 -5 24 -19 28 -32 3 -12 23 -41
45 -64 21 -23 40 -46 42 -53 4 -16 123 -126 136 -126 7 0 12 -4 12 -10 0 -10
36 -50 45 -50 2 0 18 -14 35 -30 17 -17 40 -30 50 -30 11 0 20 -5 20 -10 0 -6
10 -15 23 -20 12 -6 29 -14 37 -19 27 -17 83 -41 95 -41 7 0 18 -7 25 -15 7
-8 29 -15 50 -15 24 0 40 -5 44 -15 3 -8 17 -15 31 -15 14 0 25 -4 25 -9 0
-14 40 -25 83 -22 21 1 47 -5 59 -14 13 -8 41 -15 64 -15 23 0 58 -7 77 -15
20 -8 60 -15 90 -15 29 0 58 -5 65 -12 7 -7 57 -13 124 -16 68 -3 116 -9 120
-16 5 -7 89 -12 267 -14 214 -3 266 -1 293 11 18 9 72 17 121 19 48 3 93 10
99 16 7 7 27 12 45 12 l33 0 0 1345 0 1345 -222 0 c-178 0 -229 -3 -252 -15z"/>
<path d="M2994 2515 c-8 -19 -20 -35 -28 -35 -17 0 -26 -31 -26 -97 0 -60 7
-83 26 -83 7 0 24 -11 38 -25 38 -38 116 -38 182 0 37 22 42 29 48 71 12 91
10 95 -55 152 -57 49 -64 52 -115 52 -53 0 -55 -1 -70 -35z"/>
<path d="M2554 2506 c-105 -46 -96 -220 13 -267 52 -22 80 -24 135 -7 51 15
59 33 56 121 l-3 72 -63 47 c-67 51 -88 56 -138 34z"/>
<path d="M1980 2475 c-7 -8 -20 -15 -29 -16 -9 0 -27 -14 -40 -30 -32 -42 -27
-122 12 -169 15 -17 27 -38 27 -45 0 -8 10 -21 21 -29 12 -8 29 -28 39 -44 40
-65 168 -94 236 -53 44 27 59 90 40 163 -14 55 -26 73 -108 160 -63 67 -167
100 -198 63z"/>
</g>
</svg>
